# xmcd CD database file
#
# Track frame offsets:
#	150
#	13687
#	23237
#	36265
#	50845
#	63135
#	80097
#	98522
#	122320
#	137702
#	152237
#	166932
#	186225
#	206015
#
# Disc length: 2946 seconds
#
# Revision: 0
# Processed by: cddbd v1.5.1PL2 Copyright (c) Steve Scherf et al.
# Submitted via: CDex 1.51
#
DISCID=b70b800e
DTITLE=Various Artist - Howlin' The Blues
DYEAR=1995
DGENRE=Blues
TTITLE0=Lightnin' slim - That's All Right
TTITLE1=Lowell Fulsom - Everyday I Have The Blues
TTITLE2=Mississippi Fred McDowell - You Gotta Move
TTITLE3=Sonny Terry And Brownie Mc Ghee - Trouble In Mind
TTITLE4=Elmore James - Blues Before Sunrise
TTITLE5=Robert Pete Williams - Ugly
TTITLE6=Bukker T Bukka White - Aberdean Mississippi Blues
TTITLE7=Lightnin'Hopkins With Big Williams And Sonny Terry - Early Morning Blues
TTITLE8=Big Joe Williams - Nobody Knows You When You're Down And Out
TTITLE9=Sippie Wallace - Mighty Tight Woman
TTITLE10=Big Bill Broonzy - Baby Please Don't Go
TTITLE11=Howlin' Wolf - Howlin' For My Darlin'
TTITLE12=John Lee Hooker - House Rent Boogie
TTITLE13=Jimmy Reed - Can't Stand To Love
EXTD=YEAR: 1995
EXTT0=
EXTT1=
EXTT2=
EXTT3=
EXTT4=
EXTT5=
EXTT6=
EXTT7=
EXTT8=
EXTT9=
EXTT10=
EXTT11=
EXTT12=
EXTT13=
PLAYORDER=
